<svg width="39" height="39" viewBox="0 0 39 39" fill="none" xmlns="http://www.w3.org/2000/svg">
<rect width="39" height="39" fill="#552583"/>
<path fill-rule="evenodd" clip-rule="evenodd" d="M30.3163 33.9577L33.9192 30.3548L32.6503 25.7449L33.2031 24.4245L37.375 22.0705V16.9755L33.2149 14.6116L32.6714 13.2936L33.9562 8.68132L30.3508 5.0811L25.7405 6.34965L24.4231 5.79731L22.0688 1.625H16.9738L14.6099 5.78507L13.2923 6.3285L8.68072 5.04206L5.08089 8.64189L6.34965 13.253L5.79731 14.5703L1.625 16.9246V22.0181L5.78132 24.3873L6.32535 25.7064L5.0407 30.3179L8.64189 33.9191L13.253 32.6504L14.5705 33.2028L16.9248 37.3734H22.0185L24.3859 33.2169L25.7048 32.673L30.3163 33.9577ZM30.6356 22.1416L29.2189 25.5251L30.2838 29.3939L29.3602 30.3176L25.4996 29.2421L22.1146 30.6381L20.1294 34.1234H18.8222L16.8535 30.6359L13.4738 29.2188L9.60288 30.2839L8.68079 29.3618L9.75626 25.5012L8.36033 22.1165L4.875 20.1298V18.8224L8.36404 16.8537L9.78119 13.4738L8.7161 9.60288L9.63627 8.68271L13.4969 9.75967L16.883 8.36315L18.8651 4.875H20.171L22.1397 8.36404L25.5197 9.78119L29.3913 8.71589L30.3157 9.63895L29.2405 13.4988L30.6369 16.8847L34.125 18.8668V20.1726L30.6356 22.1416ZM19.5 26C15.9101 26 13 23.0899 13 19.5C13 15.9101 15.9101 13 19.5 13C23.0899 13 26 15.9101 26 19.5C26 23.0899 23.0899 26 19.5 26ZM22.75 19.5C22.75 21.2949 21.2949 22.75 19.5 22.75C17.7051 22.75 16.25 21.2949 16.25 19.5C16.25 17.7051 17.7051 16.25 19.5 16.25C21.2949 16.25 22.75 17.7051 22.75 19.5Z" fill="#FDB927"/>
</svg>
