<svg width="35" height="35" viewBox="0 0 35 35" fill="none" xmlns="http://www.w3.org/2000/svg">
<rect width="35" height="35" fill="#FDB927"/>
<path fill-rule="evenodd" clip-rule="evenodd" d="M13.1191 2.91659C14.2161 1.98759 15.8071 1.45825 17.5 1.45825C19.1929 1.45825 20.7839 1.98759 21.8809 2.91659H23.3333C24.9442 2.91659 26.25 4.22242 26.25 5.83325H27.7083C29.3192 5.83325 30.625 7.13909 30.625 8.74992V30.6249C30.625 32.2357 29.3192 33.5416 27.7083 33.5416H7.29167C5.68084 33.5416 4.375 32.2357 4.375 30.6249V8.74992C4.375 7.13909 5.68084 5.83325 7.29167 5.83325H8.75C8.75 4.22242 10.0558 2.91659 11.6667 2.91659H13.1191ZM23.3333 10.2083C24.4129 10.2083 25.3555 9.62171 25.8598 8.74992H27.7083V30.6249H7.29167V8.74992H9.1402C9.6445 9.62171 10.5871 10.2083 11.6667 10.2083H23.3333ZM11.6667 23.3333V20.4166H20.4167V23.3333H11.6667ZM11.6667 14.5833V17.4999H23.3333V14.5833H11.6667ZM14.3757 5.83325L14.8118 5.33068C15.2909 4.7785 16.3179 4.37492 17.5 4.37492C18.6821 4.37492 19.7091 4.7785 20.1882 5.33068L20.6243 5.83325H23.3333V7.29158H11.6667V5.83325H13.7103H14.3757Z" fill="#552583"/>
</svg>
