<svg width="37" height="37" viewBox="0 0 37 37" fill="none" xmlns="http://www.w3.org/2000/svg">
<path fill-rule="evenodd" clip-rule="evenodd" d="M29.3163 32.9577L32.9192 29.3548L31.6503 24.7449L32.2031 23.4245L36.375 21.0705V15.9755L32.2149 13.6116L31.6714 12.2936L32.9562 7.68132L29.3508 4.0811L24.7405 5.34965L23.4231 4.79731L21.0688 0.625H15.9738L13.6099 4.78507L12.2923 5.3285L7.68072 4.04206L4.08089 7.64189L5.34965 12.253L4.79731 13.5703L0.625 15.9246V21.0181L4.78132 23.3873L5.32535 24.7064L4.0407 29.3179L7.64189 32.9191L12.253 31.6504L13.5705 32.2028L15.9248 36.3734H21.0185L23.3859 32.2169L24.7048 31.673L29.3163 32.9577ZM29.6356 21.1416L28.2189 24.5251L29.2838 28.3939L28.3602 29.3176L24.4996 28.2421L21.1146 29.6381L19.1294 33.1234H17.8222L15.8535 29.6359L12.4738 28.2188L8.60288 29.2839L7.68079 28.3618L8.75626 24.5012L7.36033 21.1165L3.875 19.1298V17.8224L7.36404 15.8537L8.78119 12.4738L7.7161 8.60288L8.63627 7.68271L12.4969 8.75967L15.883 7.36315L17.8651 3.875H19.171L21.1397 7.36404L24.5197 8.78119L28.3913 7.71589L29.3157 8.63895L28.2405 12.4988L29.6369 15.8847L33.125 17.8668V19.1726L29.6356 21.1416ZM18.5 25C14.9101 25 12 22.0899 12 18.5C12 14.9101 14.9101 12 18.5 12C22.0899 12 25 14.9101 25 18.5C25 22.0899 22.0899 25 18.5 25ZM21.75 18.5C21.75 20.2949 20.2949 21.75 18.5 21.75C16.7051 21.75 15.25 20.2949 15.25 18.5C15.25 16.7051 16.7051 15.25 18.5 15.25C20.2949 15.25 21.75 16.7051 21.75 18.5Z" fill="#FDB927"/>
</svg>
