<svg width="33" height="33" viewBox="0 0 33 33" fill="none" xmlns="http://www.w3.org/2000/svg">
<path fill-rule="evenodd" clip-rule="evenodd" d="M15.9656 16.9657V30.8436H16.9656V16.9657H30.8435V15.9657H16.9656V2.32739H15.9656V15.9657H2.32727V16.9657H15.9656Z" fill="#FDB927"/>
<path d="M15.9656 30.8436H14.4656V32.3436H15.9656V30.8436ZM15.9656 16.9657H17.4656V15.4657H15.9656V16.9657ZM16.9656 30.8436V32.3436H18.4656V30.8436H16.9656ZM16.9656 16.9657V15.4657H15.4656V16.9657H16.9656ZM30.8435 16.9657V18.4657H32.3435V16.9657H30.8435ZM30.8435 15.9657H32.3435V14.4657H30.8435V15.9657ZM16.9656 15.9657H15.4656V17.4657H16.9656V15.9657ZM16.9656 2.32739H18.4656V0.827393H16.9656V2.32739ZM15.9656 2.32739V0.827393H14.4656V2.32739H15.9656ZM15.9656 15.9657V17.4657H17.4656V15.9657H15.9656ZM2.32727 15.9657V14.4657H0.827271V15.9657H2.32727ZM2.32727 16.9657H0.827271V18.4657H2.32727V16.9657ZM17.4656 30.8436V16.9657H14.4656V30.8436H17.4656ZM16.9656 29.3436H15.9656V32.3436H16.9656V29.3436ZM15.4656 16.9657V30.8436H18.4656V16.9657H15.4656ZM30.8435 15.4657H16.9656V18.4657H30.8435V15.4657ZM29.3435 15.9657V16.9657H32.3435V15.9657H29.3435ZM16.9656 17.4657H30.8435V14.4657H16.9656V17.4657ZM15.4656 2.32739V15.9657H18.4656V2.32739H15.4656ZM15.9656 3.82739H16.9656V0.827393H15.9656V3.82739ZM17.4656 15.9657V2.32739H14.4656V15.9657H17.4656ZM2.32727 17.4657H15.9656V14.4657H2.32727V17.4657ZM3.82727 16.9657V15.9657H0.827271V16.9657H3.82727ZM15.9656 15.4657H2.32727V18.4657H15.9656V15.4657Z" fill="#FDB927"/>
</svg>
